<svg style="position: absolute; width: 0; height: 0; overflow: hidden;" aria-hidden="true" version="1.1" xmlns="http://www.w3.org/2000/svg" xmlns:xlink="http://www.w3.org/1999/xlink">
    <style>
        .default-palette, .palette0 {color: currentColor;
            --color0: #4d5ae5;
            --color1: #2e2f42;
            --color2: #f4f4fd;
            --color3: #000;
            --color4: #e7e9fc;
            --color5: #fff;
        }
    </style>
    <defs>
        <symbol id="icon-close" viewBox="0 0 24 24" fill="none">
            <circle fill="var(--color4, #e7e9fc)" cx="12" cy="12" r="12"></circle>
            <circle stroke="var(--color3, #000)" stroke-opacity="0.1" cx="12" cy="12" r="11.5"></circle>
            <path  d="M16 8.806 15.194 8 12 11.194 8.806 8 8 8.806 11.194 12 8 15.194 8.806 16 12 12.806 15.194 16 16 15.194 12.806 12z"></path>
            <defs>
                <clipPath id="a">
                    <path fill="#fff" d="M8 8h8v8H8z"></path>
                </clipPath>
            </defs>
        </symbol>
        <symbol id="icon-send-1" viewBox="0 0 24 24" fill="none">
            <path fill="var(--color5, #fff)" d="M24 2 0 13.25l7.67 2.367 11.83-9.242-8.998 10.116 7e-3 3e-3-9e-3-3e-3V22l4.301-4.182 5.45 1.682z"></path>
        </symbol>
        <symbol id="icon-send" viewBox="0 0 24 20" fill="none">
            <path fill="var(--color5, #fff)" d="M24 0 0 11.25l7.67 2.367 11.83-9.242-8.998 10.116 7e-3 3e-3-9e-3-3e-3V20l4.301-4.182 5.45 1.682z"></path>
        </symbol>
        <symbol id="check-mark" viewBox="0 0 10 7" fill="none">
            <path fill="var(--color2, #f4f4fd)" d="M8.032 0.223A0.92 0.92 0 0 1 8.642 0 0.9 0.9 0 0 1 9.248 0.231 0.78 0.78 0 0 1 9.51 0.786 0.77 0.77 0 0 1 9.28 1.353L4.625 6.727a0.9 0.9 0 0 1-0.284 0.188 0.94 0.94 0 0 1-0.976-0.166l-3.087-2.85a0.8 0.8 0 0 1-0.202-0.262 0.756 0.756 0 0 1 0.18-0.9 0.9 0.9 0 0 1 0.291-0.178 0.94 0.94 0 0 1 0.684 0.012 0.9 0.9 0 0 1 0.284 0.187l2.443 2.254 4.052-4.766z"></path>
        </symbol>
        <symbol id="Vector" viewBox="0 0 10 7" fill="none">
            <path fill="var(--color2, #f4f4fd)" d="M8.032 0.223A0.92 0.92 0 0 1 8.642 0 0.9 0.9 0 0 1 9.248 0.231 0.78 0.78 0 0 1 9.51 0.786 0.77 0.77 0 0 1 9.28 1.353L4.625 6.727a0.9 0.9 0 0 1-0.284 0.188 0.94 0.94 0 0 1-0.976-0.166l-3.087-2.85a0.8 0.8 0 0 1-0.202-0.262 0.756 0.756 0 0 1 0.18-0.9 0.9 0.9 0 0 1 0.291-0.178 0.94 0.94 0 0 1 0.684 0.012 0.9 0.9 0 0 1 0.284 0.187l2.443 2.254 4.052-4.766 0.023-0.023"></path>
        </symbol>
        <symbol id="close" viewBox="0 0 24 24" fill="none">
            <circle fill="var(--color4, #e7e9fc)" cx="12" cy="12" r="12"></circle>
            <circle stroke="var(--color3, #000)" stroke-opacity="0.1" cx="12" cy="12" r="11.5"></circle>
            <path fill="var(--color1, #2e2f42)" d="M16 8.806 15.194 8 12 11.194 8.806 8 8 8.806 11.194 12 8 15.194 8.806 16 12 12.806 15.194 16 16 15.194 12.806 12z"></path>
        </symbol>
        <symbol id="email" viewBox="0 0 18 24" fill="none">
            <path  d="M15 6H3C2.175 6 1.508 6.675 1.508 7.5l-8e-3 9C1.5 17.325 2.175 18 3 18h12c0.825 0 1.5-0.675 1.5-1.5v-9C16.5 6.675 15.825 6 15 6M14.7 9.188 9.398 12.502a0.76 0.76 0 0 1-0.796 0L3.3 9.188a0.637 0.637 0 1 1 0.675-1.08L9 11.25l5.025-3.142a0.637 0.637 0 1 1 0.675 1.08"></path>
            <defs>
                <clipPath id="a1">
                    <path fill="#fff" d="M0 0h18v24H0z"></path>
                </clipPath>
            </defs>
        </symbol>
        <symbol id="phone" viewBox="0 0 18 24" fill="none">
            <path  d="M14.726 13.865l-1.838-0.21a1.44 1.44 0 0 0-1.187 0.413l-1.331 1.331A10.9 10.9 0 0 1 5.6 10.63l1.34-1.339a1.44 1.44 0 0 0 0.412-1.186l-0.21-1.824A1.45 1.45 0 0 0 5.702 5H4.45C3.632 5 2.952 5.68 3.003 6.498c0.383 6.18 5.326 11.116 11.499 11.5C15.32 18.048 16 17.368 16 16.55v-1.252a1.434 1.434 0 0 0-1.274-1.433"></path>
        </symbol>
        <symbol id="person" viewBox="0 0 18 18" fill="none">
            <path  d="M9 9a3 3 0 1 0 0-6 3 3 0 1 0 0 6M9 10.5c-2.003 0-6 1.005-6 3v0.75C3 14.662 3.337 15 3.75 15h10.5c0.412 0 0.75-0.338 0.75-0.75V13.5c0-1.995-3.998-3-6-3"></path>
            <defs>
                <clipPath id="a2">
                    <path fill="#fff" d="M0 0h18v18H0z"></path>
                </clipPath>
            </defs>
        </symbol>
        <symbol id="linkedin" viewBox="0 0 16 16" fill="none">
            <path fill="var(--color2, #f4f4fd)" d="M15.996 16H16v-5.87c0-2.87-0.618-5.082-3.974-5.082-1.613 0-2.696 0.886-3.138 1.725H8.841V5.317H5.66V16h3.314v-5.29c0-1.393 0.264-2.74 1.988-2.74 1.7 0 1.725 1.59 1.725 2.83V16zM0.264 5.318h3.317V16H0.264zM1.921 0C0.861 0 0 0.86 0 1.921s0.86 1.94 1.921 1.94 1.922-0.879 1.922-1.94C3.842 0.861 2.98 0 1.92 0"></path>
            <defs>
                <clipPath id="a3">
                    <path fill="#fff" d="M0 0h16v16H0z"></path>
                </clipPath>
            </defs>
        </symbol>
        <symbol id="facebook" viewBox="0 0 16 16" fill="none">
            <path fill="var(--color2, #f4f4fd)" d="M10.665 2.657h1.46V0.113A19 19 0 0 0 9.997 0C7.891 0 6.45 1.325 6.45 3.76V6H4.125v2.844h2.324V16h2.849V8.845h2.23L11.882 6H9.297V4.04c1e-3-0.822 0.222-1.384 1.368-1.384"></path>
        </symbol>
        <symbol id="twitter" viewBox="0 0 16 16" fill="none">
            <path fill="var(--color2, #f4f4fd)" d="M16 3.039a6.8 6.8 0 0 1-1.89 0.518 3.26 3.26 0 0 0 1.443-1.813 6.6 6.6 0 0 1-2.08 0.794 3.28 3.28 0 0 0-5.674 2.243c0 0.26 0.022 0.51 0.076 0.748a9.28 9.28 0 0 1-6.761-3.431 3.285 3.285 0 0 0 1.008 4.384 3.24 3.24 0 0 1-1.482-0.404v0.036a3.295 3.295 0 0 0 2.628 3.223 3.3 3.3 0 0 1-0.86 0.108 3 3 0 0 1-0.621-0.056 3.31 3.31 0 0 0 3.065 2.285 6.6 6.6 0 0 1-4.067 1.399c-0.269 0-0.527-0.012-0.785-0.045A9.23 9.23 0 0 0 5.032 14.5c6.036 0 9.336-5 9.336-9.334q0-0.216-0.012-0.424A6.5 6.5 0 0 0 16 3.039"></path>
        </symbol>
        <symbol id="instagram" viewBox="0 0 16 16" fill="none">
            <g fill="var(--color2, #f4f4fd)" clip-path="url(#a3)">
                <path d="M15.984 4.704c-0.037-0.85-0.175-1.435-0.372-1.941a3.9 3.9 0 0 0-0.925-1.419 3.9 3.9 0 0 0-1.416-0.922c-0.51-0.197-1.09-0.334-1.94-0.372C10.473 0.01 10.201 0 8.03 0S5.585 0.01 4.732 0.047c-0.85 0.037-1.434 0.175-1.94 0.372a3.9 3.9 0 0 0-1.42 0.925A3.9 3.9 0 0 0 0.45 2.76C0.253 3.27 0.116 3.85 0.078 4.7c-0.04 0.857-0.05 1.13-0.05 3.302s0.01 2.444 0.047 3.297c0.037 0.85 0.175 1.435 0.372 1.941 0.203 0.538 0.519 1.019 0.925 1.42 0.4 0.405 0.885 0.721 1.416 0.921 0.51 0.197 1.09 0.335 1.941 0.372C5.582 15.991 5.854 16 8.027 16s2.444-0.01 3.297-0.047c0.85-0.037 1.435-0.175 1.941-0.372a4.1 4.1 0 0 0 2.341-2.34c0.197-0.51 0.335-1.092 0.372-1.942 0.038-0.853 0.047-1.125 0.047-3.297s-3e-3-2.445-0.04-3.298M14.545 11.237c-0.035 0.781-0.166 1.203-0.276 1.484a2.65 2.65 0 0 1-1.519 1.52c-0.281 0.109-0.706 0.24-1.484 0.274-0.844 0.038-1.097 0.047-3.232 0.047s-2.391-0.01-3.232-0.047C4.02 14.481 3.599 14.35 3.317 14.24a2.5 2.5 0 0 1-0.919-0.597 2.5 2.5 0 0 1-0.597-0.919c-0.11-0.28-0.24-0.706-0.275-1.484-0.037-0.844-0.047-1.097-0.047-3.232s0.01-2.391 0.047-3.232c0.035-0.781 0.166-1.203 0.275-1.485 0.129-0.347 0.332-0.662 0.6-0.919 0.26-0.265 0.572-0.469 0.92-0.597 0.28-0.109 0.706-0.24 1.484-0.275 0.844-0.037 1.097-0.047 3.232-0.047 2.138 0 2.391 0.01 3.232 0.047 0.781 0.035 1.203 0.166 1.484 0.275 0.347 0.128 0.663 0.332 0.92 0.597 0.265 0.26 0.468 0.572 0.596 0.92 0.11 0.28 0.241 0.706 0.275 1.484 0.038 0.844 0.047 1.097 0.047 3.232s-9e-3 2.385-0.046 3.229"></path>
                <path d="M8.03 3.891a4.111 4.111 0 0 0 0 8.22 4.111 4.111 0 0 0 0-8.22M8.03 10.668a2.667 2.667 0 1 1 0-5.333 2.667 2.667 0 0 1 0 5.333M13.262 3.729a0.96 0.96 0 1 1-1.92 0 0.96 0.96 0 0 1 1.92 0"></path>
            </g>
        </symbol>
        <symbol id="astronaut" viewBox="0 0 64 64" fill="var(--color1, #2e2f42)">
            <path fill="var(--color0, #4d5ae5)" d="M63.948 9.048a1.07 1.07 0 0 0-0.86-0.725l-3.822-0.556-1.71-3.462c-0.358-0.73-1.553-0.73-1.912 0l-1.71 3.462-3.82 0.556a1.066 1.066 0 0 0-0.592 1.819l2.765 2.695-0.653 3.806c-0.068 0.4 0.096 0.804 0.424 1.043 0.332 0.241 0.765 0.271 1.124 0.081L56.6 15.97l3.418 1.797a1.068 1.068 0 0 0 1.547-1.124l-0.652-3.806 2.766-2.695a1.07 1.07 0 0 0 0.27-1.094M59.023 11.702c-0.25 0.244-0.366 0.598-0.306 0.944l0.382 2.228-2.001-1.051a1.06 1.06 0 0 0-0.994 0l-2.001 1.051 0.382-2.228a1.07 1.07 0 0 0-0.307-0.944l-1.62-1.579 2.238-0.325c0.348-0.05 0.648-0.269 0.803-0.584l1-2.026 1.001 2.026c0.156 0.315 0.456 0.534 0.804 0.584l2.237 0.325zM52.267 41.044h-2.134v2.134h2.134zM52.267 45.311h-2.134v2.134h2.134zM54.4 43.178h-2.133v2.133H54.4zM50.134 43.178H48v2.133h2.134zM44.8 52.778h-2.133v2.133H44.8zM44.8 57.045h-2.133v2.133H44.8zM46.934 54.911H44.8v2.134h2.134zM42.667 54.911h-2.134v2.134h2.134zM32 48.511h-2.133v2.134H32zM32 52.778h-2.133v2.133H32zM34.133 50.645H32v2.133h2.133zM29.867 50.645h-2.134v2.133h2.134zM11.733 12.244H9.6v2.133h2.133zM11.733 16.51H9.6v2.134h2.133zM13.866 14.377h-2.133v2.134h2.133zM9.6 14.377H7.466v2.134H9.6z"></path>
            <path d="M49.43 28.319a3.55 3.55 0 0 0-2.377-1.41 3.55 3.55 0 0 0-2.68 0.705l-2.503 1.919h-1e-3l-3.795 2.835-2.716-1.082c4.842-2.172 8.227-7.016 8.227-12.64C43.585 11 37.34 4.78 29.663 4.78S15.74 11 15.74 18.646c0 2.771 0.828 5.348 2.24 7.517l-5.528-0.048h-0.01c-0.017 0-0.03 9e-3-0.047 0.01a1 1 0 0 0-0.31 0.061c-0.026 0.01-0.052 0.015-0.077 0.027-0.012 5e-3-0.025 6e-3-0.038 0.013l-6.466 3.193h-2e-3l-3.787 1.822a1 1 0 0 0-0.126 0.07 3.56 3.56 0 0 0-1.196 4.589c0.44 0.858 1.19 1.49 2.112 1.779a3.558 3.558 0 0 0 2.757-0.257l2.776-1.476 4.528-2.339 2.714-0.015-10.884 10.83q0 2e-3-3e-3 3e-3l-2.677 2.666a3.3 3.3 0 0 0-0.98 2.356c0 0.89 0.347 1.727 0.98 2.357 0.65 0.647 1.504 0.97 2.358 0.97 0.856 0 1.709-0.323 2.36-0.97l2.629-2.617 3.482-2.6 1.801 1.794-3.523 3.508-3e-3 3e-3-2.678 2.666a3.3 3.3 0 0 0-0.98 2.355c0 0.89 0.348 1.727 0.98 2.358 0.65 0.646 1.505 0.97 2.36 0.97 0.854 0 1.71-0.324 2.36-0.97l2.679-2.667 4.285-4.266q0-3e-3 2e-3-4e-3l2.019-2-8e-3-7e-3c0.013-0.013 0.031-0.017 0.044-0.031L32.215 38.98l6.942 0.987q0.075 0.011 0.15 0.01c0.13 0 0.254-0.03 0.375-0.076q0.05-0.02 0.1-0.047c0.038-0.019 0.078-0.03 0.114-0.054l6.427-4.267c0.024-0.016 0.036-0.041 0.059-0.059 0.025-0.02 0.057-0.028 0.08-0.05l2.544-2.383a3.56 3.56 0 0 0 0.423-4.723M4.26 35.54c-0.346 0.186-0.74 0.223-1.116 0.104a1.43 1.43 0 0 1-0.425-2.52l2.628-1.264 0.632 1.849 0.266 0.776zM11.255 31.885l-3.097 1.6-0.51-1.494-0.367-1.073 4.053-2zM41.454 18.644c0 1.837-0.438 3.57-1.198 5.119l-8.363-3.798a3.72 3.72 0 0 0-1.576-2.776l2.928-9.72C38 8.98 41.454 13.416 41.454 18.643M17.876 18.643c0-6.47 5.289-11.734 11.789-11.734 0.506 0 1 0.043 1.49 0.105l-2.864 9.507c-0.038 0-0.075-0.011-0.114-0.011a3.743 3.743 0 0 0-3.745 3.733 3.743 3.743 0 0 0 3.745 3.733c1.389 0 2.589-0.766 3.236-1.889l7.725 3.51c-2.15 2.893-5.59 4.78-9.473 4.78-6.5 0-11.789-5.265-11.789-11.734M29.789 20.243c0 0.882-0.724 1.6-1.612 1.6a1.61 1.61 0 0 1-1.612-1.6c0-0.882 0.723-1.6 1.612-1.6s1.612 0.718 1.612 1.6M4.929 50.292a1.217 1.217 0 0 1-1.708 2e-3 1.187 1.187 0 0 1 0-1.689l1.924-1.917 1.702 1.695zM11.357 57.759a1.216 1.216 0 0 1-1.71 2e-3 1.19 1.19 0 0 1 0-1.689l1.926-1.918 0.805 0.801 0.899 0.894zM18.321 50.822l-4e-3 2e-3-3.53 3.52-0.805-0.801-0.898-0.894 3.527-3.51v-2e-3q0 0 3e-3-2e-3c0.08-0.08 0.13-0.176 0.18-0.27 0.013-0.028 0.04-0.052 0.052-0.08 0.033-0.083 0.038-0.171 0.05-0.258 7e-3-0.049 0.028-0.095 0.028-0.145 0-0.071-0.025-0.14-0.04-0.211-0.013-0.064-0.013-0.13-0.037-0.191-0.04-0.1-0.11-0.189-0.183-0.275-0.02-0.024-0.027-0.054-0.05-0.076h-1e-3l-2e-3-4e-3-3.214-3.2c-0.034-0.034-0.078-0.048-0.116-0.077a1 1 0 0 0-0.174-0.115 1 1 0 0 0-0.187-0.065 1 1 0 0 0-0.206-0.04 1 1 0 0 0-0.19 0.01 1 1 0 0 0-0.209 0.04 1 1 0 0 0-0.188 0.09c-0.04 0.022-0.085 0.03-0.122 0.057l-3.547 2.648-1.801-1.794 4.798-4.773 8.72 8.578zM31.958 36.788c-0.03-4e-3-0.06 8e-3-0.09 6e-3a1 1 0 0 0-0.23 0.014q-0.09 0.013-0.177 0.042a1 1 0 0 0-0.193 0.094q-0.089 0.053-0.166 0.123c-0.026 0.022-0.057 0.033-0.08 0.058l-9.397 10.292-8.656-8.513 5.666-5.637a1.068 1.068 0 0 0-0.759-1.822l-4.437 0.026 0.055-3.215 6.208 0.053a13.9 13.9 0 0 0 9.963 4.202c0.875 0 1.728-0.09 2.559-0.245 0.08 0.064 0.159 0.129 0.26 0.17l4.819 1.92 0.305 1.516 0.356 1.77zM40.041 37.145l-0.626-3.116 2.892-2.16 0.758 1.005 1.136 1.508zM47.548 31.483l-1.676 1.57-1.862-2.473 1.663-1.274c0.31-0.24 0.701-0.336 1.085-0.286 0.387 0.054 0.728 0.256 0.96 0.568 0.434 0.584 0.36 1.398-0.17 1.895"></path>
            <path d="M27.204 37.088l-4.286-4.267a1.066 1.066 0 0 0-1.505 0l-4.285 4.267a1.07 1.07 0 0 0 0 1.513l4.285 4.266a1.066 1.066 0 0 0 1.505 0l4.286-4.266a1.067 1.067 0 0 0 0-1.513M22.166 40.606l-2.773-2.762 2.773-2.761 2.775 2.761zM34.329 10.142l-0.516 2.071c0.142 0.035 3.476 0.904 3.476 4.298h2.133c0-4.034-3.331-5.931-5.093-6.37M39.422 18.644h-2.133v2.134h2.133z"></path>
        </symbol>
        <symbol id="diagram" viewBox="0 0 64 64" fill="none">
            <g clip-path="url(#a4)">
                <path fill="var(--color0, #4d5ae5)" d="M29.851 29.93h2.132v9.594h-2.132zM38.38 34.194h2.132v5.33H38.38zM21.322 37.392h2.132v2.132h-2.132zM14.926 36.326h2.132v3.198h-2.133z"></path>
                <path fill="var(--color1, #2e2f42)" d="M3.198 56.582h51.174a3.2 3.2 0 0 0 3.198-3.198v-4.265a3.2 3.2 0 0 0-3.199-3.198h-1.066V19.334l6.056-5.736a3.216 3.216 0 1 0-1.493-1.526l-4.563 4.325v-2.46a3.2 3.2 0 0 0-3.198-3.198H7.463a3.2 3.2 0 0 0-3.199 3.199V45.92H3.198A3.2 3.2 0 0 0 0 49.119v4.265a3.2 3.2 0 0 0 3.198 3.198M60.768 9.673a1.066 1.066 0 1 1 0 2.133 1.066 1.066 0 0 1 0-2.133M6.397 13.938c0-0.59 0.477-1.067 1.066-1.067h42.644c0.589 0 1.066 0.478 1.066 1.067v4.477l-2.132 2.026V16.07c0-0.589-0.477-1.066-1.066-1.066H9.595c-0.589 0-1.066 0.477-1.066 1.066v26.652c0 0.59 0.477 1.067 1.066 1.067h38.38c0.589 0 1.066-0.478 1.066-1.067V23.374l2.132-2.02V45.92H6.397zM15.992 27.797a3.198 3.198 0 1 0 2.214 5.497l3.706 1.86c0.43 0.215 0.953 0.114 1.273-0.246l7.877-8.863 7.744 5.803c0.416 0.311 0.996 0.278 1.372-0.079l6.73-6.375v16.262H10.662v-24.52H46.91v5.32L39.366 29.6l-7.81-5.855a1.067 1.067 0 0 0-1.435 0.145l-7.986 8.985-2.986-1.493q0.033-0.192 0.041-0.387a3.2 3.2 0 0 0-3.198-3.198M17.058 30.995a1.066 1.066 0 1 1-2.133 0 1.066 1.066 0 0 1 2.133 0M23.454 48.053h10.661v1.066c0 0.589-0.477 1.066-1.066 1.066H24.52a1.066 1.066 0 0 1-1.066-1.066zM2.132 49.12c0-0.589 0.478-1.066 1.066-1.066h18.124v1.066a3.2 3.2 0 0 0 3.198 3.199h8.53a3.2 3.2 0 0 0 3.198-3.199v-1.066h18.124c0.588 0 1.066 0.477 1.066 1.066v4.265c0 0.588-0.478 1.066-1.067 1.066H3.198a1.066 1.066 0 0 1-1.066-1.066z"></path>
            </g>
            <defs>
                <clipPath id="a4">
                    <path fill="#fff" d="M0 0h64v64H0z"></path>
                </clipPath>
            </defs>
        </symbol>
        <symbol id="clock" viewBox="0 0 64 64" fill="none">
            <path fill="var(--color1, #2e2f42)" d="M62.593 30.603C62.59 13.697 48.883-4e-3 31.977 0 15.074 3e-3 1.372 13.71 1.375 30.616a30.61 30.61 0 0 0 21.299 29.152q0.182 0.058 0.373 0.057c0.242 0 0.478-0.065 0.685-0.187 0.27-0.16 0.472-0.414 0.567-0.713l7.73-24.5a3.826 3.826 0 1 0-1.68-7.27L20.137 16.942a1.275 1.275 0 0 0-1.803 1.804l10.207 10.218a3.75 3.75 0 0 0 1.072 4.618l-7.365 23.346C7.692 51.566 0.239 35.42 5.601 20.864 10.963 6.31 27.11-1.145 41.665 4.217 56.22 9.58 63.673 25.726 58.312 40.281a28.09 28.09 0 0 1-14.925 15.947l-0.796-3.749a1.275 1.275 0 0 0-2.096-0.687l-7.674 6.851a1.275 1.275 0 0 0 0.462 2.169l9.797 3.127a1.275 1.275 0 0 0 1.638-1.48l-0.782-3.678a30.51 30.51 0 0 0 18.657-28.178M31.984 29.327a1.276 1.276 0 1 1 0 2.552 1.276 1.276 0 0 1 0-2.552M36.185 59.055l4.368-3.896 1.206 5.68z"></path>
            <path fill="var(--color0, #4d5ae5)" d="M30.709 6.37v2.55a1.275 1.275 0 1 0 2.55 0V6.37a1.276 1.276 0 0 0-2.55 0M7.752 29.327a1.275 1.275 0 0 0 0 2.55h2.55a1.275 1.275 0 1 0 0-2.55zM56.216 31.878a1.275 1.275 0 1 0 0-2.55h-2.55a1.276 1.276 0 0 0 0 2.55z"></path>
        </symbol>
        <symbol id="antenna" viewBox="0 0 64 64" fill="none">
            <path fill="var(--color1, #2e2f42)" d="M61.546 44.195 44.66 27.185l1.874-9.23c0.484 0.188 0.998 0.287 1.517 0.29h0.013a4.318 4.318 0 1 0-4.017-2.87l-9.92 1.21L17.945 0.32A1.07 1.07 0 0 0 17.192 0c-0.28 1e-3-0.548 0.113-0.747 0.31L13.42 3.318a1.067 1.067 0 0 0 0 1.509l1.628 1.65a29.885 29.885 0 0 0 5.04 35.327q0.127 0.122 0.291 0.195a6 6 0 0 0-0.104 1.094v12.374h-12.8A5.34 5.34 0 0 0 2.14 60.8v2.133C2.14 63.523 2.618 64 3.207 64h49.067c0.589 0 1.067-0.478 1.067-1.067V60.8a5.34 5.34 0 0 0-5.334-5.333h-12.8v-5.484c2.005 0.42 4.048 0.635 6.097 0.64a29.7 29.7 0 0 0 14.08-3.567l1.637 1.646c0.198 0.202 0.469 0.318 0.753 0.32 0.28-2e-3 0.548-0.113 0.746-0.31l3.025-3.009a1.067 1.067 0 0 0 0-1.508M46.56 12.466a2.133 2.133 0 1 1 1.503 3.646h-6e-3a2.133 2.133 0 0 1-1.497-3.646zM44.049 19.476l-1.197 5.89-2.351-2.364zM42.837 17.672l-3.84 3.817-2.97-2.987zM48.008 57.6a3.2 3.2 0 0 1 3.2 3.2v1.067H4.275V60.8a3.2 3.2 0 0 1 3.2-3.2zM33.075 53.333v2.134H22.408v-2.134zM22.408 51.2v-8.107c0-2.587 2.393-4.693 5.333-4.693s5.334 2.106 5.334 4.693V51.2zM35.208 47.808v-4.715c0-3.764-3.35-6.826-7.466-6.826a7.6 7.6 0 0 0-6.563 3.572 27.74 27.74 0 0 1-4.557-31.774l37.204 37.417a27.64 27.64 0 0 1-18.618 2.326M57.786 46.441l-1.503-1.512L17.182 5.591l-1.51-1.512 1.51-1.504 15.87 15.96c7e-3 0 0.011 0.013 0.019 0.019L59.3 44.937z"></path>
            <path fill="var(--color0, #4d5ae5)" d="M27.751 40.533h-0.01a3.2 3.2 0 0 0-0.01 6.4h0.01a3.2 3.2 0 0 0 0.01-6.4M28.498 44.49a1.067 1.067 0 0 1-1.818-0.762 1.07 1.07 0 0 1 1.061-1.061 1.067 1.067 0 0 1 0.757 1.823z"></path>
        </symbol>
    </defs>
</svg>
      
         
        
  